<?xml version="1.0" encoding="UTF-8" standalone="no"?>
<!DOCTYPE svg PUBLIC "-//W3C//DTD SVG 1.1//EN" "http://www.w3.org/Graphics/SVG/1.1/DTD/svg11.dtd">
<svg width="100%" height="100%" viewBox="0 0 530 500" version="1.1" xmlns="http://www.w3.org/2000/svg" xmlns:xlink="http://www.w3.org/1999/xlink" xml:space="preserve" xmlns:serif="http://www.serif.com/" style="fill-rule:evenodd;clip-rule:evenodd;stroke-linejoin:round;stroke-miterlimit:1.41421;">
    <g transform="matrix(1.10879,0,0,1.12867,0,0)">
        <rect x="0" y="0" width="478" height="443"/>
    </g>
    <g transform="matrix(0.3125,0,0,1.01626,6.875,-7.10543e-14)">
        <rect x="10" y="0" width="32" height="492" style="fill:white;"/>
    </g>
    <g transform="matrix(0.3125,0,0,0.127033,106.875,1.42109e-14)">
        <rect x="10" y="0" width="32" height="492" style="fill:white;"/>
    </g>
    <g transform="matrix(0.3125,0,0,0.127033,106.875,125)">
        <rect x="10" y="0" width="32" height="492" style="fill:white;"/>
    </g>
    <g transform="matrix(0.3125,0,0,0.127033,106.875,250)">
        <rect x="10" y="0" width="32" height="492" style="fill:white;"/>
    </g>
    <g transform="matrix(0.3125,0,0,0.127033,106.875,375)">
        <rect x="10" y="0" width="32" height="492" style="fill:white;"/>
    </g>
    <g transform="matrix(0.3125,0,0,0.127033,206.875,1.42109e-14)">
        <rect x="10" y="0" width="32" height="492" style="fill:white;"/>
    </g>
    <g transform="matrix(0.3125,0,0,0.127033,206.875,125)">
        <rect x="10" y="0" width="32" height="492" style="fill:white;"/>
    </g>
    <g transform="matrix(0.3125,0,0,0.127033,206.875,250)">
        <rect x="10" y="0" width="32" height="492" style="fill:white;"/>
    </g>
    <g transform="matrix(0.3125,0,0,0.127033,206.875,375)">
        <rect x="10" y="0" width="32" height="492" style="fill:white;"/>
    </g>
    <g transform="matrix(0.3125,0,0,0.127033,306.875,1.42109e-14)">
        <rect x="10" y="0" width="32" height="492" style="fill:white;"/>
    </g>
    <g transform="matrix(0.3125,0,0,0.127033,306.875,125)">
        <rect x="10" y="0" width="32" height="492" style="fill:white;"/>
    </g>
    <g transform="matrix(0.3125,0,0,0.127033,306.875,250)">
        <rect x="10" y="0" width="32" height="492" style="fill:white;"/>
    </g>
    <g transform="matrix(0.3125,0,0,0.127033,306.875,375)">
        <rect x="10" y="0" width="32" height="492" style="fill:white;"/>
    </g>
    <g transform="matrix(0.3125,0,0,0.127033,406.875,1.42109e-14)">
        <rect x="10" y="0" width="32" height="492" style="fill:white;"/>
    </g>
    <g transform="matrix(0.3125,0,0,0.127033,406.875,125)">
        <rect x="10" y="0" width="32" height="492" style="fill:white;"/>
    </g>
    <g transform="matrix(0.3125,0,0,0.127033,406.875,250)">
        <rect x="10" y="0" width="32" height="492" style="fill:white;"/>
    </g>
    <g transform="matrix(0.3125,0,0,0.127033,406.875,375)">
        <rect x="10" y="0" width="32" height="492" style="fill:white;"/>
    </g>
    <g transform="matrix(0.3125,0,0,1.01626,506.875,1.42109e-14)">
        <rect x="10" y="0" width="32" height="492" style="fill:white;"/>
    </g>
</svg>
